<svg xmlns="http://www.w3.org/2000/svg" viewBox="0 0 900 415" font-family="Georgia, serif">
<rect x="0" y="0" width="900" height="415" fill="#fdfdfc"/>
<polyline points="20.0,275.0 21.1,275.0 22.2,275.0 23.4,275.0 24.5,275.0 25.6,275.0 26.8,275.0 27.9,275.0 29.0,275.0 30.1,275.0 31.2,275.0 32.4,275.0 33.5,275.0 34.6,275.0 35.8,275.0 36.9,275.0 38.0,275.0 39.1,275.0 40.2,275.0 41.4,275.0 42.5,275.0 43.6,275.0 44.8,275.0 45.9,275.0 47.0,275.0 48.1,275.0 49.2,275.0 50.4,275.0 51.5,275.0 52.6,275.0 53.7,275.0 54.9,275.0 56.0,275.0 57.1,275.0 58.2,275.0 59.4,275.0 60.5,275.0 61.6,275.0 62.8,275.0 63.9,274.9 65.0,274.9 66.1,274.9 67.2,274.9 68.4,274.9 69.5,274.9 70.6,274.8 71.8,274.8 72.9,274.8 74.0,274.7 75.1,274.6 76.2,274.6 77.4,274.5 78.5,274.4 79.6,274.3 80.8,274.2 81.9,274.0 83.0,273.9 84.1,273.7 85.2,273.4 86.4,273.2 87.5,272.9 88.6,272.5 89.8,272.1 90.9,271.7 92.0,271.2 93.1,270.6 94.2,270.0 95.4,269.3 96.5,268.5 97.6,267.6 98.8,266.6 99.9,265.5 101.0,264.3 102.1,262.9 103.2,261.4 104.4,259.8 105.5,258.0 106.6,256.0 107.8,253.9 108.9,251.6 110.0,249.1 111.1,246.4 112.2,243.5 113.4,240.4 114.5,237.1 115.6,233.6 116.8,229.9 117.9,226.0 119.0,221.8 120.1,217.5 121.2,212.9 122.4,208.1 123.5,203.2 124.6,198.1 125.8,192.8 126.9,187.4 128.0,181.9 129.1,176.2 130.2,170.5 131.4,164.8 132.5,159.0 133.6,153.2 134.8,147.4 135.9,141.7 137.0,136.1 138.1,130.6 139.2,125.3 140.4,120.1 141.5,115.2 142.6,110.5 143.8,106.2 144.9,102.1 146.0,98.4 147.1,95.1 148.2,92.1 149.4,89.6 150.5,87.5 151.6,85.8 152.8,84.6 153.9,83.9 155.0,83.7 156.1,83.9 157.2,84.6 158.4,85.8 159.5,87.5 160.6,89.6 161.8,92.1 162.9,95.1 164.0,98.4 165.1,102.1 166.2,106.2 167.4,110.5 168.5,115.2 169.6,120.1 170.8,125.3 171.9,130.6 173.0,136.1 174.1,141.7 175.2,147.4 176.4,153.2 177.5,159.0 178.6,164.8 179.8,170.5 180.9,176.2 182.0,181.9 183.1,187.4 184.2,192.8 185.4,198.1 186.5,203.2 187.6,208.1 188.8,212.9 189.9,217.5 191.0,221.8 192.1,226.0 193.2,229.9 194.4,233.6 195.5,237.1 196.6,240.4 197.8,243.5 198.9,246.4 200.0,249.1 201.1,251.6 202.2,253.9 203.4,256.0 204.5,258.0 205.6,259.8 206.8,261.4 207.9,262.9 209.0,264.3 210.1,265.5 211.2,266.6 212.4,267.6 213.5,268.5 214.6,269.3 215.8,270.0 216.9,270.6 218.0,271.2 219.1,271.7 220.3,272.1 221.4,272.5 222.5,272.9 223.6,273.2 224.8,273.4 225.9,273.7 227.0,273.9 228.1,274.0 229.2,274.2 230.4,274.3 231.5,274.4 232.6,274.5 233.8,274.6 234.9,274.6 236.0,274.7 237.1,274.8 238.2,274.8 239.4,274.8 240.5,274.9 241.6,274.9 242.8,274.9 243.9,274.9 245.0,274.9 246.1,274.9 247.2,275.0 248.4,275.0 249.5,275.0 250.6,275.0 251.8,275.0 252.9,275.0 254.0,275.0 255.1,275.0 256.2,275.0 257.4,275.0 258.5,275.0 259.6,275.0 260.8,275.0 261.9,275.0 263.0,275.0 264.1,275.0 265.2,275.0 266.4,275.0 267.5,275.0 268.6,275.0 269.8,275.0 270.9,275.0 272.0,275.0 273.1,275.0 274.2,275.0 275.4,275.0 276.5,275.0 277.6,275.0 278.8,275.0 279.9,275.0 281.0,275.0 282.1,275.0 283.2,275.0 284.4,275.0 285.5,275.0 286.6,275.0 287.8,275.0 288.9,275.0 290.0,275.0" stroke="#1a1a1a" stroke-width="2.6" fill="#bdbdbd" fill-opacity="0.35" stroke-linejoin="round" stroke-linecap="round"/>
<rect x="20.0" y="55.0" width="270.0" height="220.0" fill="none" stroke="#1a1a1a" stroke-width="1.2"/>

<line x1="20.0" y1="275.0" x2="290.0" y2="275.0" stroke="#1a1a1a" stroke-width="1.4"/>
<line x1="110.0" y1="272.0" x2="110.0" y2="278.0" stroke="#1a1a1a" stroke-width="1.2"/>
<text x="110.0" y="291.0" font-size="10.5" fill="#666" text-anchor="middle" font-family="Georgia,serif">-W</text>
<line x1="155.0" y1="272.0" x2="155.0" y2="278.0" stroke="#1a1a1a" stroke-width="1.2"/>
<text x="155.0" y="291.0" font-size="10.5" fill="#666" text-anchor="middle" font-family="Georgia,serif">0</text>
<line x1="200.0" y1="272.0" x2="200.0" y2="278.0" stroke="#1a1a1a" stroke-width="1.2"/>
<text x="200.0" y="291.0" font-size="10.5" fill="#666" text-anchor="middle" font-family="Georgia,serif">W</text>

<text x="155.0" y="41.0" font-size="14" fill="#1a1a1a" text-anchor="middle" font-weight="600">M(f) — envolvente en banda base</text>
<text x="155.0" y="54.0" font-size="10.5" fill="#666" text-anchor="middle">ancho de banda W</text>
<rect x="315.0" y="55.0" width="135.0" height="220.0" fill="#f6dede"/>
<rect x="450.0" y="55.0" width="135.0" height="220.0" fill="#dbe8f5"/>

<polyline points="495.0,275.0 495.8,275.0 496.5,275.0 497.2,275.0 498.0,275.0 498.8,275.0 499.5,275.0 500.2,275.0 501.0,275.0 501.8,275.0 502.5,274.9 503.2,274.9 504.0,274.9 504.8,274.9 505.5,274.8 506.2,274.8 507.0,274.7 507.8,274.6 508.5,274.5 509.2,274.3 510.0,274.2 510.8,273.9 511.5,273.7 512.2,273.3 513.0,272.9 513.8,272.4 514.5,271.8 515.2,271.1 516.0,270.2 516.8,269.2 517.5,268.1 518.2,266.7 519.0,265.2 519.8,263.4 520.5,261.4 521.2,259.1 522.0,256.6 522.8,253.8 523.5,250.7 524.2,247.3 525.0,243.6 525.8,239.7 526.5,235.5 527.2,231.1 528.0,226.5 528.8,221.7 529.5,216.8 530.2,211.9 531.0,206.9 531.8,202.0 532.5,197.2 533.2,192.6 534.0,188.3 534.8,184.3 535.5,180.6 536.2,177.4 537.0,174.8 537.8,172.6 538.5,171.0 539.2,170.1 540.0,169.8 540.8,170.1 541.5,171.0 542.2,172.6 543.0,174.8 543.8,177.4 544.5,180.6 545.2,184.3 546.0,188.3 546.8,192.6 547.5,197.2 548.2,202.0 549.0,206.9 549.8,211.9 550.5,216.8 551.2,221.7 552.0,226.5 552.8,231.1 553.5,235.5 554.2,239.7 555.0,243.6 555.8,247.3 556.5,250.7 557.2,253.8 558.0,256.6 558.8,259.1 559.5,261.4 560.2,263.4 561.0,265.2 561.8,266.7 562.5,268.1 563.2,269.2 564.0,270.2 564.8,271.1 565.5,271.8 566.2,272.4 567.0,272.9 567.8,273.3 568.5,273.7 569.2,273.9 570.0,274.2 570.8,274.3 571.5,274.5 572.2,274.6 573.0,274.7 573.8,274.8 574.5,274.8 575.2,274.9 576.0,274.9 576.8,274.9 577.5,274.9 578.2,275.0 579.0,275.0 579.8,275.0 580.5,275.0 581.2,275.0 582.0,275.0 582.8,275.0 583.5,275.0 584.2,275.0 585.0,275.0" stroke="#2f6fb3" stroke-width="2.6" fill="#2f6fb3" fill-opacity="0.18" stroke-linejoin="round" stroke-linecap="round"/>
<polyline points="315.0,275.0 315.8,275.0 316.5,275.0 317.2,275.0 318.0,275.0 318.8,275.0 319.5,275.0 320.2,275.0 321.0,275.0 321.8,275.0 322.5,274.9 323.2,274.9 324.0,274.9 324.8,274.9 325.5,274.8 326.2,274.8 327.0,274.7 327.8,274.6 328.5,274.5 329.2,274.3 330.0,274.2 330.8,273.9 331.5,273.7 332.2,273.3 333.0,272.9 333.8,272.4 334.5,271.8 335.2,271.1 336.0,270.2 336.8,269.2 337.5,268.1 338.2,266.7 339.0,265.2 339.8,263.4 340.5,261.4 341.2,259.1 342.0,256.6 342.8,253.8 343.5,250.7 344.2,247.3 345.0,243.6 345.8,239.7 346.5,235.5 347.2,231.1 348.0,226.5 348.8,221.7 349.5,216.8 350.2,211.9 351.0,206.9 351.8,202.0 352.5,197.2 353.2,192.6 354.0,188.3 354.8,184.3 355.5,180.6 356.2,177.4 357.0,174.8 357.8,172.6 358.5,171.0 359.2,170.1 360.0,169.8 360.8,170.1 361.5,171.0 362.2,172.6 363.0,174.8 363.8,177.4 364.5,180.6 365.2,184.3 366.0,188.3 366.8,192.6 367.5,197.2 368.2,202.0 369.0,206.9 369.8,211.9 370.5,216.8 371.2,221.7 372.0,226.5 372.8,231.1 373.5,235.5 374.2,239.7 375.0,243.6 375.8,247.3 376.5,250.7 377.2,253.8 378.0,256.6 378.8,259.1 379.5,261.4 380.2,263.4 381.0,265.2 381.8,266.7 382.5,268.1 383.2,269.2 384.0,270.2 384.8,271.1 385.5,271.8 386.2,272.4 387.0,272.9 387.8,273.3 388.5,273.7 389.2,273.9 390.0,274.2 390.8,274.3 391.5,274.5 392.2,274.6 393.0,274.7 393.8,274.8 394.5,274.8 395.2,274.9 396.0,274.9 396.8,274.9 397.5,274.9 398.2,275.0 399.0,275.0 399.8,275.0 400.5,275.0 401.2,275.0 402.0,275.0 402.8,275.0 403.5,275.0 404.2,275.0 405.0,275.0" stroke="#c0403a" stroke-width="2.6" fill="#c0403a" fill-opacity="0.18" stroke-linejoin="round" stroke-linecap="round"/>
<rect x="315.0" y="55.0" width="270.0" height="220.0" fill="none" stroke="#1a1a1a" stroke-width="1.2"/>

<line x1="315.0" y1="275.0" x2="585.0" y2="275.0" stroke="#1a1a1a" stroke-width="1.4"/>
<line x1="360.0" y1="272.0" x2="360.0" y2="278.0" stroke="#1a1a1a" stroke-width="1.2"/>
<text x="360.0" y="291.0" font-size="10.5" fill="#666" text-anchor="middle" font-family="Georgia,serif">-f_c</text>
<line x1="450.0" y1="272.0" x2="450.0" y2="278.0" stroke="#1a1a1a" stroke-width="1.2"/>
<text x="450.0" y="291.0" font-size="10.5" fill="#666" text-anchor="middle" font-family="Georgia,serif">0</text>
<line x1="540.0" y1="272.0" x2="540.0" y2="278.0" stroke="#1a1a1a" stroke-width="1.2"/>
<text x="540.0" y="291.0" font-size="10.5" fill="#666" text-anchor="middle" font-family="Georgia,serif">f_c</text>

<text x="450.0" y="41.0" font-size="14" fill="#1a1a1a" text-anchor="middle" font-weight="600">S(f), caso valido: f_c &gt; W</text>
<text x="387.9" y="309.0" font-size="10.5" fill="#c0403a" text-anchor="middle">isla entera en f&lt;0 → ×(+j)</text>
<text x="512.1" y="309.0" font-size="10.5" fill="#2f6fb3" text-anchor="middle">isla entera en f&gt;0 → ×(−j)</text>
<rect x="610.0" y="55.0" width="135.0" height="220.0" fill="#f6dede"/>
<rect x="745.0" y="55.0" width="135.0" height="220.0" fill="#dbe8f5"/>

<polyline points="610.0,275.0 611.4,275.0 612.7,275.0 614.0,275.0 615.4,275.0 616.8,275.0 618.1,275.0 619.5,275.0 620.8,275.0 622.1,275.0 623.5,275.0 624.9,275.0 626.2,275.0 627.5,275.0 628.9,275.0 630.2,275.0 631.6,275.0 633.0,275.0 634.3,275.0 635.6,275.0 637.0,275.0 638.4,275.0 639.7,275.0 641.0,275.0 642.4,275.0 643.8,275.0 645.1,275.0 646.5,275.0 647.8,275.0 649.1,275.0 650.5,274.9 651.9,274.9 653.2,274.9 654.5,274.9 655.9,274.8 657.2,274.8 658.6,274.7 660.0,274.7 661.3,274.6 662.6,274.5 664.0,274.4 665.4,274.2 666.7,274.0 668.0,273.8 669.4,273.6 670.8,273.3 672.1,272.9 673.5,272.5 674.8,272.0 676.1,271.4 677.5,270.7 678.9,270.0 680.2,269.1 681.5,268.0 682.9,266.9 684.2,265.6 685.6,264.1 687.0,262.4 688.3,260.6 689.6,258.6 691.0,256.3 692.4,253.9 693.7,251.2 695.0,248.3 696.4,245.1 697.8,241.7 699.1,238.2 700.5,234.3 701.8,230.3 703.1,226.1 704.5,221.7 705.9,217.1 707.2,212.4 708.5,207.6 709.9,202.7 711.2,197.7 712.6,192.7 714.0,187.7 715.3,182.7 716.6,177.8 718.0,172.9 719.4,168.2 720.7,163.6 722.0,159.2 723.4,155.0 724.8,151.0 726.1,147.3 727.5,143.8 728.8,140.5 730.1,137.5 731.5,134.8 732.9,132.4 734.2,130.2 735.5,128.3 736.9,126.7 738.2,125.3 739.6,124.2 741.0,123.3 742.3,122.7 743.6,122.3 745.0,122.2" stroke="#c0403a" stroke-width="2.6" fill="#c0403a" fill-opacity="0.18" stroke-linejoin="round" stroke-linecap="round"/>
<polyline points="745.0,122.2 745.0,122.2 746.4,122.3 747.7,122.7 749.0,123.3 750.4,124.2 751.8,125.3 753.1,126.7 754.5,128.3 755.8,130.2 757.1,132.4 758.5,134.8 759.9,137.5 761.2,140.5 762.5,143.8 763.9,147.3 765.2,151.0 766.6,155.0 768.0,159.2 769.3,163.6 770.6,168.2 772.0,172.9 773.4,177.8 774.7,182.7 776.0,187.7 777.4,192.7 778.8,197.7 780.1,202.7 781.5,207.6 782.8,212.4 784.1,217.1 785.5,221.7 786.9,226.1 788.2,230.3 789.5,234.3 790.9,238.2 792.2,241.7 793.6,245.1 795.0,248.3 796.3,251.2 797.6,253.9 799.0,256.3 800.4,258.6 801.7,260.6 803.0,262.4 804.4,264.1 805.8,265.6 807.1,266.9 808.5,268.0 809.8,269.1 811.1,270.0 812.5,270.7 813.9,271.4 815.2,272.0 816.5,272.5 817.9,272.9 819.2,273.3 820.6,273.6 822.0,273.8 823.3,274.0 824.6,274.2 826.0,274.4 827.4,274.5 828.7,274.6 830.0,274.7 831.4,274.7 832.8,274.8 834.1,274.8 835.5,274.9 836.8,274.9 838.1,274.9 839.5,274.9 840.9,275.0 842.2,275.0 843.5,275.0 844.9,275.0 846.2,275.0 847.6,275.0 849.0,275.0 850.3,275.0 851.6,275.0 853.0,275.0 854.4,275.0 855.7,275.0 857.0,275.0 858.4,275.0 859.8,275.0 861.1,275.0 862.5,275.0 863.8,275.0 865.1,275.0 866.5,275.0 867.8,275.0 869.2,275.0 870.5,275.0 871.9,275.0 873.2,275.0 874.6,275.0 876.0,275.0 877.3,275.0 878.6,275.0 880.0,275.0" stroke="#2f6fb3" stroke-width="2.6" fill="#2f6fb3" fill-opacity="0.18" stroke-linejoin="round" stroke-linecap="round"/>
<rect x="610.0" y="55.0" width="270.0" height="220.0" fill="none" stroke="#1a1a1a" stroke-width="1.2"/>

<line x1="610.0" y1="275.0" x2="880.0" y2="275.0" stroke="#1a1a1a" stroke-width="1.4"/>
<line x1="728.8" y1="272.0" x2="728.8" y2="278.0" stroke="#1a1a1a" stroke-width="1.2"/>
<text x="728.8" y="291.0" font-size="10.5" fill="#666" text-anchor="middle" font-family="Georgia,serif">-f_c</text>
<line x1="745.0" y1="272.0" x2="745.0" y2="278.0" stroke="#1a1a1a" stroke-width="1.2"/>
<text x="745.0" y="291.0" font-size="10.5" fill="#666" text-anchor="middle" font-family="Georgia,serif">0</text>
<line x1="761.2" y1="272.0" x2="761.2" y2="278.0" stroke="#1a1a1a" stroke-width="1.2"/>
<text x="761.2" y="291.0" font-size="10.5" fill="#666" text-anchor="middle" font-family="Georgia,serif">f_c</text>

<text x="745.0" y="41.0" font-size="14" fill="#1a1a1a" text-anchor="middle" font-weight="600">S(f), caso invalido: f_c &lt; W</text>
<text x="745.0" y="309.0" font-size="10.3" fill="#1a1a1a" text-anchor="middle">cada lobulo cruza f=0: mitad ×(+j), mitad ×(−j)</text>
<line x1="20" y1="321.0" x2="880" y2="321.0" stroke="#ddd" stroke-width="1"/>
<rect x="20" y="333.0" width="14" height="14" fill="#dbe8f5" stroke="#2f6fb3" stroke-width="1"/>
<text x="40" y="344.0" font-size="11" fill="#1a1a1a">f &gt; 0 → H(f) = −j (rotacion de fase constante en toda la zona)</text>
<rect x="20" y="352.0" width="14" height="14" fill="#f6dede" stroke="#c0403a" stroke-width="1"/>
<text x="40" y="363.0" font-size="11" fill="#1a1a1a">f &lt; 0 → H(f) = +j (rotacion de fase constante en toda la zona)</text>
<text x="20" y="387.0" font-size="11.5" fill="#1a1a1a" font-style="italic">Una isla espectral que cae ENTERA en una franja conserva su forma exacta (fase uniforme aplicada).</text>
<text x="20" y="404.0" font-size="11.5" fill="#1a1a1a" font-style="italic">Una isla que CRUZA f=0 queda partida entre las dos fases — ahi se rompe el atajo m(t)cos(ω_ct) → m(t)sin(ω_ct).</text>
</svg>